<?xml version="1.0" standalone="no"?>
<!DOCTYPE svg PUBLIC "-//W3C//DTD SVG 20010904//EN"
 "http://www.w3.org/TR/2001/REC-SVG-20010904/DTD/svg10.dtd">
<svg version="1.0" xmlns="http://www.w3.org/2000/svg"
 width="400.000000pt" height="400.000000pt" viewBox="0 0 400.000000 400.000000"
 preserveAspectRatio="xMidYMid meet">
<metadata>
Created by potrace 1.11, written by Peter Selinger 2001-2013
</metadata>
<g transform="translate(0.000000,400.000000) scale(0.100000,-0.100000)"
fill="#000000" stroke="none">
<path d="M1593 3808 c-11 -13 -49 -61 -84 -108 -35 -47 -69 -91 -76 -98 -7 -7
-13 -18 -13 -23 0 -5 -7 -9 -16 -9 -8 0 -13 -4 -10 -9 3 -4 -6 -21 -20 -37
-13 -16 -34 -44 -45 -61 -11 -18 -25 -33 -30 -33 -5 0 -9 -7 -9 -15 0 -8 -27
-30 -60 -49 -179 -105 -382 -294 -498 -464 -92 -134 -184 -333 -222 -481 -6
-24 -17 -50 -23 -56 -7 -7 -21 -25 -32 -41 -11 -15 -58 -77 -105 -138 -46 -61
-88 -115 -92 -121 -4 -5 -21 -26 -37 -46 -17 -20 -34 -55 -40 -78 -5 -23 -7
-41 -5 -38 3 2 18 -8 35 -24 23 -22 35 -26 52 -20 12 5 32 5 44 0 13 -5 23 -5
23 -1 0 5 19 9 42 11 23 1 44 4 47 6 2 3 11 -1 19 -8 13 -10 14 -9 8 2 -6 9
-5 12 5 9 8 -3 14 -18 14 -36 0 -18 3 -32 7 -32 5 0 8 -11 8 -24 0 -79 99
-372 161 -478 16 -27 29 -51 29 -54 0 -11 86 -132 141 -199 58 -71 165 -178
229 -229 20 -17 35 -38 36 -52 0 -13 -2 -24 -5 -24 -4 0 -7 -8 -7 -17 -1 -38
-16 -118 -22 -123 -4 -3 -7 -16 -8 -30 -1 -25 -8 -72 -21 -140 -9 -45 -10 -49
-12 -52 -2 -2 -4 -15 -6 -31 -2 -15 -9 -53 -15 -83 -14 -65 -7 -104 18 -103
21 1 54 13 52 19 -3 10 23 60 32 60 4 0 8 4 8 10 0 5 14 33 31 62 29 49 43 73
81 139 25 45 45 68 53 61 5 -4 5 -2 1 5 -8 15 21 76 34 68 5 -3 12 0 16 6 4 8
3 9 -4 5 -15 -9 -15 -1 -2 24 8 15 14 16 34 7 13 -7 22 -15 20 -18 -2 -4 4 -5
14 -2 11 2 25 -2 33 -10 8 -7 26 -17 39 -20 14 -3 77 -22 140 -40 166 -50 284
-65 480 -62 248 5 441 50 655 155 342 168 625 469 761 808 l29 73 112 -2 c73
-2 117 2 126 9 8 7 16 9 19 6 3 -3 12 8 19 25 7 16 16 28 19 26 11 -7 1 778
-10 805 -19 46 -57 60 -163 60 l-94 0 -23 68 c-126 381 -432 727 -803 907
-203 98 -404 145 -642 150 -163 3 -260 -4 -375 -29 -70 -16 -71 -16 -66 2 2 9
15 70 27 134 18 96 20 120 9 133 -18 21 -43 19 -67 -7z"/>
<path d="M1030 126 c0 -2 7 -7 16 -10 8 -3 12 -2 9 4 -6 10 -25 14 -25 6z"/>
</g>
</svg>
