<?xml version="1.0" standalone="no"?>
<!DOCTYPE svg PUBLIC "-//W3C//DTD SVG 20010904//EN"
 "http://www.w3.org/TR/2001/REC-SVG-20010904/DTD/svg10.dtd">
<svg version="1.0" xmlns="http://www.w3.org/2000/svg"
 width="510.000000pt" height="510.000000pt" viewBox="0 0 510.000000 510.000000"
 preserveAspectRatio="xMidYMid meet">
<metadata>
Created by potrace 1.11, written by Peter Selinger 2001-2013
</metadata>
<g transform="translate(0.000000,510.000000) scale(0.100000,-0.100000)"
fill="#000000" stroke="none">
<path d="M3130 5085 c0 -8 -4 -15 -9 -15 -5 0 -8 -12 -8 -26 0 -15 -5 -29 -10
-33 -5 -3 -15 -25 -21 -48 -7 -24 -19 -43 -27 -43 -8 0 -17 -4 -20 -10 -3 -6
1 -7 9 -4 9 3 16 1 16 -5 0 -7 -6 -14 -14 -17 -8 -3 -12 -12 -9 -20 3 -8 1
-14 -5 -14 -6 0 -8 -9 -5 -20 3 -11 1 -20 -4 -20 -5 0 -9 -9 -10 -21 -1 -11
-11 -38 -22 -60 -12 -22 -21 -46 -21 -54 0 -8 -9 -29 -19 -47 -11 -17 -17 -36
-14 -41 4 -6 -1 -8 -12 -3 -16 6 -16 4 -4 -10 11 -14 11 -18 1 -21 -6 -3 -10
-9 -6 -14 3 -5 0 -9 -6 -9 -6 0 -8 -5 -4 -11 3 -6 0 -15 -7 -20 -10 -6 -11 -9
-1 -9 10 0 10 -4 0 -19 -7 -11 -16 -18 -20 -15 -4 3 -5 -2 -2 -10 10 -25 -15
-27 -121 -12 -127 18 -389 14 -505 -8 -673 -124 -1197 -630 -1335 -1287 -38
-182 -41 -470 -6 -644 107 -535 448 -970 935 -1195 133 -61 209 -84 451 -135
55 -12 359 -14 442 -3 87 11 122 7 105 -15 -5 -6 -8 -22 -6 -35 3 -14 0 -21
-6 -17 -15 9 -12 -2 6 -19 8 -9 11 -16 5 -16 -6 0 -11 -7 -11 -15 0 -8 5 -15
10 -15 14 0 12 -27 -2 -33 -9 -4 -8 -6 2 -6 11 -1 15 -12 14 -41 0 -22 4 -40
10 -40 8 0 8 -3 1 -8 -9 -6 -12 -27 -5 -34 8 -10 5 -64 -4 -70 -7 -5 -4 -8 7
-8 10 0 15 -5 12 -10 -4 -6 -10 -8 -14 -6 -4 3 -8 -2 -8 -10 0 -8 6 -13 12
-10 7 2 12 -4 11 -17 -1 -12 2 -28 7 -34 6 -9 5 -13 -3 -13 -10 0 -10 -3 0
-15 10 -12 9 -15 -6 -15 -17 0 -17 -1 1 -13 14 -11 15 -16 5 -22 -10 -6 -9 -9
1 -16 10 -6 11 -9 2 -9 -7 0 -13 -7 -13 -15 0 -8 6 -15 13 -15 8 0 7 -4 -3
-10 -12 -8 -10 -10 8 -10 13 0 21 -4 18 -9 -7 -11 13 -9 32 2 7 5 10 13 7 18
-4 5 -1 9 6 9 7 0 10 3 7 6 -4 3 2 14 13 25 23 23 30 24 23 4 -4 -8 -1 -15 6
-15 6 0 9 4 6 8 -3 5 9 23 26 40 16 18 27 32 24 32 -4 0 -18 -12 -31 -26 -14
-15 -25 -22 -25 -17 0 6 7 16 15 23 8 7 12 17 8 23 -3 5 -2 7 4 4 6 -4 25 12
42 34 28 34 35 38 49 27 12 -10 14 -10 8 0 -4 7 -2 12 5 12 8 0 8 4 -1 15 -11
13 -10 14 5 9 15 -6 17 -3 13 14 -4 15 -2 19 8 15 8 -3 11 -9 8 -14 -3 -5 2
-6 11 -3 14 6 14 8 1 18 -13 9 -12 15 9 39 14 15 25 24 25 20 0 -5 -5 -14 -12
-21 -9 -9 -9 -12 -1 -12 7 0 14 9 18 19 3 10 15 21 26 24 18 5 19 9 9 27 -8
15 -8 20 -1 16 6 -4 11 -2 11 4 0 6 4 9 10 5 5 -3 6 -13 3 -23 -7 -18 -5 -17
17 12 10 13 10 17 3 12 -7 -4 -13 -2 -13 3 0 6 4 11 10 11 5 0 7 7 4 15 -5 11
-2 13 9 9 9 -3 13 -12 11 -19 -3 -7 -1 -16 4 -19 5 -3 9 2 8 12 0 9 5 16 12
15 6 -2 12 2 12 7 0 6 -4 10 -9 10 -5 0 -11 7 -15 15 -5 13 -2 14 17 4 20 -11
21 -11 8 4 -9 12 -10 17 -2 17 7 0 9 5 5 12 -5 8 -2 9 9 5 9 -3 19 -2 22 4 4
5 10 7 15 4 4 -3 11 2 14 10 4 13 2 13 -14 5 -32 -17 -30 -11 10 32 22 24 40
47 40 52 0 5 7 2 17 -5 15 -13 15 -12 4 10 -8 15 -9 21 -2 17 6 -4 14 -1 17 8
3 9 12 12 22 8 14 -5 15 -3 4 10 -10 12 -10 18 2 27 11 9 16 9 22 0 5 -8 3 -9
-6 -4 -9 6 -11 4 -6 -4 5 -7 11 -10 14 -7 3 3 12 0 21 -6 11 -9 10 -6 -2 9
-15 17 -16 25 -7 42 6 12 16 19 21 15 6 -3 13 4 16 16 4 16 8 18 14 8 6 -9 9
-7 9 9 0 17 4 21 18 16 14 -6 15 -4 4 9 -8 10 -9 19 -3 22 5 4 17 21 26 38 12
25 13 33 3 39 -7 5 -15 4 -18 0 -7 -12 -91 -29 -120 -24 -13 2 -26 -1 -30 -7
-4 -6 -15 -12 -26 -14 -10 -2 -36 -6 -57 -10 -20 -4 -42 -4 -48 -1 -5 4 36 38
91 76 118 81 147 106 256 216 73 73 196 228 233 293 95 167 149 298 190 459
39 154 45 214 45 406 0 193 -13 287 -64 470 -18 69 -19 74 -8 81 7 5 8 2 3 -6
-5 -9 -4 -11 4 -6 9 6 9 11 1 21 -8 9 -8 15 0 20 5 3 10 15 10 26 0 11 7 22
15 25 8 4 15 10 15 16 0 5 -5 6 -11 3 -6 -4 -5 2 2 13 7 12 17 18 23 15 5 -3
6 -1 2 5 -3 6 -2 13 4 17 5 3 10 12 10 18 0 7 -4 6 -10 -3 -5 -8 -12 -12 -15
-8 -3 3 1 13 10 22 12 12 13 16 3 16 -11 0 -11 2 0 9 8 4 12 19 10 32 -2 19
-10 25 -36 27 -22 2 -41 -3 -53 -14 -10 -9 -25 -14 -34 -10 -9 3 -14 2 -11 -3
5 -7 -44 -36 -49 -29 -1 2 -14 26 -30 53 -67 119 -164 245 -269 351 -71 72
-221 194 -238 194 -9 0 -9 3 -1 11 6 6 9 17 6 24 -3 10 2 12 19 9 13 -2 17 -1
10 2 -10 5 -10 9 0 22 7 9 8 13 2 9 -6 -3 -11 0 -11 8 0 8 4 12 9 9 7 -5 12
10 9 29 0 4 6 8 14 8 8 1 20 2 27 3 13 1 20 34 8 41 -5 3 -7 -3 -5 -13 2 -11
-3 -19 -11 -19 -9 0 -11 4 -5 10 5 5 7 16 4 25 -5 12 -1 14 23 8 23 -5 25 -4
12 4 -15 9 -16 14 -6 30 7 10 17 16 23 12 5 -3 3 3 -5 13 -8 10 -10 16 -4 12
6 -4 19 2 29 13 10 11 14 20 9 20 -5 0 -2 5 6 11 13 9 12 10 -2 5 -10 -3 -18
-1 -18 4 0 6 8 10 18 10 14 0 15 2 2 10 -9 6 -10 10 -3 10 6 0 14 14 18 30 4
17 11 31 16 31 5 1 13 2 18 3 5 0 13 5 18 9 4 5 4 8 -2 7 -24 -5 -27 1 -9 16
10 8 13 13 7 9 -9 -4 -11 -1 -7 10 5 12 9 13 21 4 11 -10 13 -9 11 2 -2 8 -7
18 -13 22 -6 5 2 7 17 4 18 -3 25 0 21 9 -2 7 -12 10 -21 7 -13 -4 -12 -2 3
10 11 9 16 17 12 17 -4 0 -3 9 3 20 6 11 15 18 20 15 5 -3 12 0 16 6 4 8 3 9
-4 5 -8 -5 -11 -1 -9 11 2 18 17 27 27 16 3 -4 -1 -3 -9 2 -10 6 -12 4 -7 -4
5 -7 11 -10 14 -6 8 8 10 45 2 40 -4 -2 -7 2 -7 9 0 8 6 12 13 9 9 -3 12 2 9
16 -3 15 0 19 8 14 18 -11 36 -12 43 -2 3 5 2 9 -3 8 -32 -6 -39 15 -15 43 6
8 10 17 7 20 -3 3 3 11 12 19 16 13 17 12 4 -3 -7 -10 -9 -18 -3 -18 14 0 26
34 13 38 -6 2 -4 17 6 38 9 18 15 36 12 38 -4 4 -698 76 -733 76 -9 0 -16 -7
-16 -15z m480 -639 c0 -2 -7 -7 -16 -10 -8 -3 -12 -2 -9 4 6 10 25 14 25 6z
m-670 -3890 c0 -3 -4 -8 -10 -11 -5 -3 -10 -1 -10 4 0 6 5 11 10 11 6 0 10 -2
10 -4z"/>
<path d="M3826 4881 c-4 -5 -2 -12 3 -15 5 -4 12 -2 15 3 4 5 2 12 -3 15 -5 4
-12 2 -15 -3z"/>
<path d="M3515 4259 c-4 -6 -5 -12 -2 -15 2 -3 7 2 10 11 7 17 1 20 -8 4z"/>
<path d="M4123 3392 c-8 -14 -8 -19 1 -19 7 0 13 9 13 19 1 10 1 18 0 18 -1 0
-7 -8 -14 -18z"/>
<path d="M3635 1330 c-3 -5 -1 -10 4 -10 6 0 11 5 11 10 0 6 -2 10 -4 10 -3 0
-8 -4 -11 -10z"/>
<path d="M3566 1238 c3 -4 0 -8 -6 -8 -6 0 -8 -5 -4 -11 5 -8 9 -8 14 1 4 7
12 10 18 6 6 -3 14 -1 18 5 4 8 3 9 -4 5 -7 -4 -12 -3 -12 2 0 5 -7 9 -15 9
-8 0 -12 -4 -9 -9z"/>
<path d="M3485 1150 c-3 -6 1 -7 9 -4 18 7 21 14 7 14 -6 0 -13 -4 -16 -10z"/>
<path d="M3429 1093 c-13 -14 -18 -23 -11 -19 7 4 12 2 12 -6 1 -14 23 20 26
40 3 17 1 16 -27 -15z"/>
<path d="M2845 831 c-3 -5 -2 -12 3 -15 5 -3 9 1 9 9 0 17 -3 19 -12 6z"/>
<path d="M3176 822 c-3 -5 1 -9 9 -9 8 0 12 4 9 9 -3 4 -7 8 -9 8 -2 0 -6 -4
-9 -8z"/>
<path d="M3155 760 c3 -5 8 -10 11 -10 2 0 4 5 4 10 0 6 -5 10 -11 10 -5 0 -7
-4 -4 -10z"/>
<path d="M3077 709 c-8 -11 -12 -30 -9 -42 4 -15 7 -17 10 -7 2 8 11 21 20 27
9 7 12 16 8 20 -4 4 -11 1 -16 -7 -6 -9 -10 -10 -10 -3 0 7 8 17 18 22 9 6 12
11 5 11 -6 0 -18 -9 -26 -21z"/>
<path d="M2973 575 c0 -8 4 -12 9 -9 5 3 6 10 3 15 -9 13 -12 11 -12 -6z"/>
</g>
</svg>
